# xmcd CD database file
#
# Track frame offsets:
#	150
#	20240
#	36488
#	51915
#	71073
#	94618
#	105123
#	119790
#	133825
#	150900
#	172360
#	192780
#	208760
#	237670
#
# Disc length: 3336 seconds
#
# Revision: 27
# Processed by: cddbd v1.5.2PL0 Copyright (c) Steve Scherf et al.
# Submitted via: CDex 1.99.1
#
DISCID=d20d060e
DTITLE=Various Artist - Gone in 60 Seconds
DYEAR=2000
DGENRE=Soundtrack
TTITLE0=Cult - Painted On My Heart
TTITLE1=Gomez - Machismo
TTITLE2=Moby - Flower
TTITLE3=Groove Armada - Rap
TTITLE4=Chemical Brothers - Leave Home
TTITLE5=Method Man and Redman - Da Rockwilder
TTITLE6=Ice Cube - Roll All Day
TTITLE7=Caviar - Sugarless
TTITLE8=BT (featuring M. Doughty) - Never Gonna Come Back Down
TTITLE9=A3 - Too Sick To Pray
TTITLE10=DMX - Party Up (Up In Here)
TTITLE11=Apollo Four Forty - Stop The Rock
TTITLE12=Citizen King - Better Days (And The Bottom Drops Out)
TTITLE13=Trevor Rabin - Boost Me
EXTD=YEAR: 2000
EXTT0=
EXTT1=
EXTT2=
EXTT3=
EXTT4=
EXTT5=
EXTT6=
EXTT7=
EXTT8=
EXTT9=
EXTT10=
EXTT11=
EXTT12=
EXTT13=
PLAYORDER=
